<svg xmlns="http://www.w3.org/2000/svg" xmlns:xlink="http://www.w3.org/1999/xlink" width="1024" zoomAndPan="magnify" viewBox="0 0 768 767.999994" height="1024" preserveAspectRatio="xMidYMid meet" version="1.0"><defs><clipPath id="d766663e94"><path d="M 58.710938 294 L 250 294 L 250 537.898438 L 58.710938 537.898438 Z M 58.710938 294 " clip-rule="nonzero"/></clipPath><clipPath id="5e33707fab"><path d="M 88 233 L 279.960938 233 L 279.960938 477 L 88 477 Z M 88 233 " clip-rule="nonzero"/></clipPath><clipPath id="70294ee8ed"><path d="M 284.996094 284.996094 L 482.996094 284.996094 L 482.996094 482.996094 L 284.996094 482.996094 Z M 284.996094 284.996094 " clip-rule="nonzero"/></clipPath><clipPath id="a9e780391f"><path d="M 511.636719 280.238281 L 674.386719 280.238281 L 674.386719 487.988281 L 511.636719 487.988281 Z M 511.636719 280.238281 " clip-rule="nonzero"/></clipPath></defs><g clip-path="url(#d766663e94)"><path fill="#010101" d="M 218.410156 477.386719 C 218.410156 447.164062 218.410156 417.40625 218.410156 387.640625 C 218.027344 387.496094 217.644531 387.347656 217.261719 387.195312 C 201.445312 407.066406 185.625 426.929688 169.238281 447.519531 C 163.40625 440.25 157.816406 433.289062 151.734375 425.707031 C 121.902344 463.21875 92.308594 500.421875 62.472656 537.941406 C 61.109375 536.847656 60.019531 535.976562 58.726562 534.9375 C 122.238281 455.035156 185.511719 375.425781 249.59375 294.800781 C 249.59375 356.425781 249.59375 416.757812 249.59375 477.386719 C 239.355469 477.386719 229.382812 477.386719 218.410156 477.386719 Z M 218.410156 477.386719 " fill-opacity="1" fill-rule="nonzero"/></g><g clip-path="url(#5e33707fab)"><path fill="#010101" d="M 88.894531 295.632812 C 112.074219 324.777344 134.523438 353.015625 157.480469 381.882812 C 159.222656 379.789062 160.753906 378.003906 162.214844 376.164062 C 199.027344 329.828125 235.828125 283.464844 272.699219 237.167969 C 274.324219 235.132812 275.863281 230.425781 279.925781 235.789062 C 233.65625 294.003906 187.351562 352.261719 140.507812 411.199219 C 133.984375 403.109375 127.765625 395.394531 120.824219 386.792969 C 120.5625 389.054688 120.277344 390.351562 120.277344 391.652344 C 120.25 405.085938 120.414062 418.523438 120.136719 431.949219 C 120.078125 434.710938 119.042969 437.921875 117.371094 440.097656 C 108.3125 451.9375 98.914062 463.515625 88.886719 476.121094 C 88.894531 415.632812 88.894531 356.289062 88.894531 295.632812 Z M 88.894531 295.632812 " fill-opacity="1" fill-rule="nonzero"/></g><path fill="#010101" d="M 383.996094 287.207031 C 330.539062 287.207031 287.207031 330.539062 287.207031 383.996094 C 287.207031 437.449219 330.539062 480.78125 383.996094 480.78125 C 437.449219 480.78125 480.78125 437.449219 480.78125 383.996094 C 480.78125 330.539062 437.449219 287.207031 383.996094 287.207031 Z M 436.878906 436.878906 C 422.753906 451.003906 403.972656 458.785156 383.996094 458.785156 C 364.015625 458.785156 345.234375 451.003906 331.109375 436.878906 C 316.984375 422.753906 309.203125 403.972656 309.203125 383.996094 C 309.203125 364.015625 316.984375 345.234375 331.109375 331.109375 C 345.234375 316.984375 364.015625 309.203125 383.996094 309.203125 C 403.972656 309.203125 422.753906 316.984375 436.878906 331.109375 C 451.003906 345.234375 458.785156 364.015625 458.785156 383.996094 C 458.785156 403.972656 451.003906 422.753906 436.878906 436.878906 Z M 436.878906 436.878906 " fill-opacity="1" fill-rule="nonzero"/><g clip-path="url(#70294ee8ed)"><path fill="#010101" d="M 383.996094 482.996094 C 329.40625 482.996094 284.996094 438.582031 284.996094 383.996094 C 284.996094 329.40625 329.40625 284.996094 383.996094 284.996094 C 438.582031 284.996094 482.996094 329.40625 482.996094 383.996094 C 482.996094 438.582031 438.582031 482.996094 383.996094 482.996094 Z M 383.996094 289.417969 C 331.84375 289.417969 289.417969 331.84375 289.417969 383.996094 C 289.417969 436.144531 331.84375 478.570312 383.996094 478.570312 C 436.144531 478.570312 478.570312 436.144531 478.570312 383.996094 C 478.570312 331.84375 436.144531 289.417969 383.996094 289.417969 Z M 383.996094 461 C 363.425781 461 344.089844 452.988281 329.542969 438.445312 C 315 423.898438 306.988281 404.5625 306.988281 383.996094 C 306.988281 363.425781 315 344.089844 329.542969 329.542969 C 344.089844 315 363.425781 306.988281 383.996094 306.988281 C 404.5625 306.988281 423.898438 315 438.445312 329.542969 C 452.988281 344.089844 461 363.425781 461 383.996094 C 461 404.5625 452.988281 423.898438 438.445312 438.445312 C 423.898438 452.988281 404.5625 461 383.996094 461 Z M 383.996094 311.414062 C 364.609375 311.414062 346.378906 318.964844 332.675781 332.675781 C 318.964844 346.378906 311.414062 364.609375 311.414062 383.996094 C 311.414062 403.378906 318.964844 421.609375 332.675781 435.3125 C 346.386719 449.023438 364.609375 456.570312 383.996094 456.570312 C 403.378906 456.570312 421.609375 449.019531 435.3125 435.3125 C 449.023438 421.601562 456.574219 403.378906 456.574219 383.996094 C 456.574219 364.609375 449.023438 346.378906 435.3125 332.675781 C 421.609375 318.964844 403.378906 311.414062 383.996094 311.414062 Z M 383.996094 311.414062 " fill-opacity="1" fill-rule="nonzero"/></g><g clip-path="url(#a9e780391f)"><path fill="#000000" d="M 613.203125 370.144531 L 590.59375 365.160156 C 566.210938 359.785156 556.84375 351.679688 556.84375 338.953125 C 556.84375 322.824219 569.277344 311.859375 593.011719 311.859375 C 612.789062 311.859375 625.730469 321.035156 630.34375 334.25 C 630.683594 335.214844 630.996094 336.203125 631.222656 337.230469 C 631.429688 338.179688 631.597656 339.035156 631.734375 339.796875 C 632.117188 341.941406 633.992188 343.472656 636.171875 343.472656 L 665.34375 343.472656 C 666.597656 343.472656 667.800781 342.953125 668.652344 342.03125 C 669.503906 341.113281 669.945312 339.878906 669.851562 338.632812 C 667.347656 303.714844 636.867188 280.25 594.003906 280.25 C 547.441406 280.25 516.15625 305.046875 516.15625 341.949219 C 516.15625 370.144531 537.609375 387.199219 573.296875 394.933594 L 598.761719 400.574219 C 623.964844 406.214844 633.699219 414.210938 633.699219 427.855469 C 633.699219 443.722656 617.972656 456.367188 594.816406 456.367188 C 573.550781 456.367188 557.773438 447.457031 552.242188 434.40625 C 551.320312 432.082031 550.679688 429.910156 550.253906 428.21875 C 549.738281 426.191406 547.945312 424.757812 545.855469 424.757812 L 516.15625 424.757812 C 514.898438 424.757812 513.683594 425.285156 512.832031 426.214844 C 511.976562 427.144531 511.550781 428.386719 511.65625 429.648438 C 514.628906 465.082031 546.417969 487.976562 592.636719 487.976562 C 643.0625 487.976562 674.386719 463.753906 674.386719 424.757812 C 674.386719 395.898438 653.113281 378.804688 613.203125 370.144531 Z M 613.203125 370.144531 " fill-opacity="1" fill-rule="nonzero"/></g></svg>